# xmcd
#
# Track frame offsets:
#	150
#	12989
#	18572
#	29349
#	44084
#	61255
#	69912
#	83739
#	96298
#	113119
#	125981
#	139447
#	152577
#	159024
#	168893
#	184258
#	194874
#	209771
#
# Disc length: 3025 seconds
#
# Revision: 1
# Processed by: cddbd v1.5.2PL0 Copyright (c) Steve Scherf et al.
# Submitted via: EasyCDDAExtractor 11.1.0.1
#
DISCID=050bcf12
DTITLE=Various Artist - Så længe skuden kan gå
DYEAR=1900
DGENRE=Country
TTITLE0=erik paaske - så længe skuden
TTITLE1=Niels Sømand - musette
TTITLE2=Eugen Tajmer  - den danske sømand
TTITLE3=Eugen Tajmer  - østersøens perle
TTITLE4=NLone Kellermann and Niels Sømand - natten breder
TTITLE5=Eugen Tajmer - alle er vi sømænd
TTITLE6=Lone Kellermann and Niels Sømand - du gamle måne
TTITLE7=Eugen Tajmer - vi har gynget rundt
TTITLE8=Lone Kellermann and Niels Sømand - ved kajen
TTITLE9=Eugen Tajmer - skibshunden
TTITLE10=Lone Kellermann and Niels Sømand - blomstrene jasmin
TTITLE11=Eugen Tajmer - en aften i sct.pauli
TTITLE12=Niels Sømand - irsk medley
TTITLE13=Eugen Tajmer - pigen fra
TTITLE14=Eugen Tajmer - gillelejevalsen
TTITLE15=Lone Kellermann and Niels Sømand - havets vilde fugle
TTITLE16=Eugen Tajmer - havnevalsen
TTITLE17=Eugen Tajmer - Eugen Tajmr
EXTD=
EXTT0=
EXTT1=
EXTT2=
EXTT3=
EXTT4=
EXTT5=
EXTT6=
EXTT7=
EXTT8=
EXTT9=
EXTT10=
EXTT11=
EXTT12=
EXTT13=
EXTT14=
EXTT15=
EXTT16=
EXTT17=
PLAYORDER=
